<?xml version="1.0" encoding="UTF-8"?>
<!DOCTYPE svg PUBLIC "-//W3C//DTD SVG 1.1//EN" "http://www.w3.org/Graphics/SVG/1.1/DTD/svg11.dtd">
<!-- Creator: CorelDRAW -->
<svg xmlns="http://www.w3.org/2000/svg" xml:space="preserve" width="99.5274mm" height="36.8196mm" version="1.1" style="shape-rendering:geometricPrecision; text-rendering:geometricPrecision; image-rendering:optimizeQuality; fill-rule:evenodd; clip-rule:evenodd"
viewBox="0 0 9952.74 3681.96"
 xmlns:xlink="http://www.w3.org/1999/xlink"
 xmlns:xodm="http://www.corel.com/coreldraw/odm/2003">
 <defs>
  <style type="text/css">
   <![CDATA[
    .fil0 {fill:#24454A}
   ]]>
  </style>
 </defs>
 <g id="Слой_x0020_1">
  <metadata id="CorelCorpID_0Corel-Layer"/>
  <g id="_2363037849408">
   <path class="fil0" d="M106.12 3671.65l-106.12 0 0 -515.81 106.12 0 0 203.35 190.11 -203.35 129.72 0 -218.89 236.52 256.46 279.29 -135.62 0 -221.78 -238.02 0 238.02zm3414.73 -291.42l199.95 0 0 88.33 -199.95 0 0 -88.33zm471.1 291.42l-89.18 0 0 -515.81 106.11 0 0 336 249.83 -336 91.37 0 0 515.81 -105.4 0 0 -338.23 -252.73 338.23zm635.21 0l-106.13 0 0 -515.81 106.13 0 0 193.07 232.88 0 0 -193.07 105.34 0 0 515.81 -105.34 0 0 -226.22 -232.88 0 0 226.22zm594.68 0l-137.79 0 218.13 -267.49 -196.04 -248.32 130.45 0 169.48 217.35 0 -217.35 106.12 0 0 217.35 170.21 -217.35 130.44 0 -196.75 248.32 218.85 267.49 -138.54 0 -184.21 -227.69 0 227.69 -106.12 0 0 -227.69 -184.23 227.69zm820.16 0l-89.18 0 0 -515.81 106.11 0 0 336 249.83 -336 91.37 0 0 515.81 -105.4 0 0 -338.23 -252.73 338.23zm635.21 0l-106.12 0 0 -515.81 106.12 0 0 193.07 232.88 0 0 -193.07 105.36 0 0 515.81 -105.36 0 0 -226.22 -232.88 0 0 226.22zm598.36 0l-89.15 0 0 -515.81 106.08 0 0 336 249.83 -336 91.36 0 0 515.81 -105.34 0 0 -338.23 -252.78 338.23zm635.22 -422.99l0 128.21 111.99 0c25.55,0 45.45,-5.49 59.71,-16.55 14.22,-11.07 21.37,-26.9 21.37,-47.57 0,-20.59 -7.15,-36.45 -21.37,-47.52 -14.26,-11.03 -34.16,-16.57 -59.71,-16.57l-111.99 0zm0 422.99l-106.1 0 0 -515.81 225.46 0c55.53,0 99.26,14.48 131.18,43.45 32.44,28.51 48.64,65.85 48.64,112.04 0,46.64 -16.2,84.22 -48.64,112.73 -31.92,28.96 -75.65,43.45 -131.18,43.45l-119.36 0 0 204.14zm525.39 0l-89.18 0 0 -515.81 106.13 0 0 336 249.83 -336 91.36 0 0 515.81 -105.39 0 0 -338.23 -252.75 338.23zm635.22 0l-106.12 0 0 -515.81 106.12 0 0 193.07 232.88 0 0 -193.07 105.36 0 0 515.81 -105.36 0 0 -226.22 -232.88 0 0 226.22zm615.31 0l-106.13 0 0 -515.81 372.16 0 0 95.05 -266.03 0 0 420.76zm-8883.47 -386.14l-75.93 179.05 151.07 0 -75.14 -179.05zm-159.92 386.14l-111.26 0 221.03 -518.78 101.71 0 221.08 518.78 -112.77 0 -50.83 -119.37 -218.12 0 -50.84 119.37zm663.95 -226.22l0 134.85 133.37 0c26.5,0 47.17,-5.76 61.89,-17.33 14.76,-11.56 22.13,-28.12 22.13,-49.75 0,-21.59 -7.37,-38.31 -22.13,-50.1 -14.72,-11.79 -35.39,-17.67 -61.89,-17.67l-133.37 0zm0 -201.19l0 113.5 119.38 0c22.09,0 39.41,-4.91 51.94,-14.75 12.53,-9.8 18.8,-23.59 18.8,-41.27 0,-18.18 -6.27,-32.27 -18.8,-42.34 -12.53,-10.09 -29.85,-15.14 -51.94,-15.14l-119.38 0zm153.26 427.41l-259.39 0 0 -515.81 242.46 0c47.63,0 85.6,11.29 113.83,33.88 28.24,22.6 42.39,54.29 42.39,95.06 0,25.04 -6.15,46.41 -18.45,64.13 -12.3,17.67 -27.74,30.43 -46.4,38.3 28,5.88 52.56,21.14 73.68,45.69 20.64,24.09 30.97,54.75 30.97,92.1 0,43.72 -16.21,79.11 -48.64,106.12 -31.97,27.01 -75.43,40.53 -130.45,40.53zm431.09 0l-106.11 0 0 -515.81 106.11 0 0 203.35 190.12 -203.35 129.68 0 -218.85 236.52 256.46 279.29 -135.62 0 -221.79 -238.02 0 238.02zm697.08 -386.14l-75.89 179.05 151.09 0 -75.2 -179.05zm-159.87 386.14l-111.28 0 221.05 -518.78 101.71 0 221.07 518.78 -112.77 0 -50.83 -119.37 -218.12 0 -50.83 119.37zm713.31 10.31c-74.69,0 -136.83,-15.94 -186.47,-47.91l0 -103.12c22.63,15.71 49.64,28.35 81.07,37.91 31.43,9.58 61.67,14.37 90.64,14.37 39.31,0 69.89,-6.64 91.76,-19.9 21.86,-13.26 32.8,-31.66 32.8,-55.25 0,-20.63 -9.71,-36.49 -29.12,-47.53 -19.4,-11.06 -46.3,-16.6 -80.68,-16.6l-64.86 0 0 -89.13 77.38 0c55.53,0 83.26,-18.94 83.26,-56.75 0,-17.18 -8.57,-30.59 -25.79,-40.19 -17.2,-9.57 -40.8,-14.34 -70.72,-14.34 -59.48,0 -114.46,12.77 -165.07,38.32l0 -98.03c47.65,-25.55 104.36,-38.3 170.22,-38.3 59.94,0 107.35,13.49 142.23,40.5 35.85,27.05 53.79,62.39 53.79,106.12 0,24.59 -6.76,45.84 -20.27,63.78 -13.53,17.91 -30.1,31.05 -49.72,39.43 26.51,9.83 47.86,25.39 64.08,46.75 16.22,21.36 24.32,47.06 24.32,77.03 0,45.7 -19.64,84.5 -58.95,116.42 -38.8,30.93 -92.12,46.42 -159.9,46.42z"/>
   <path class="fil0" d="M8131.71 2054.83l-348.53 348.53c-290.99,290.99 -767.14,290.99 -1058.13,0l-1525.76 -1525.76 877.59 -877.6 2054.83 2054.83zm-4468.93 98.34l-348.53 348.53c-290.97,290.97 -767.15,290.97 -1058.12,0l-435.1 -435.1 877.59 -877.59 964.16 964.16zm2232.49 -51.15l-348.53 348.53c-290.99,290.99 -767.14,290.99 -1058.13,0l-1525.76 -1525.77 877.59 -877.59 2054.83 2054.83z"/>
  </g>
 </g>
</svg>
